<svg xmlns="http://www.w3.org/2000/svg" width="1533" height="1543" viewBox="0 0 1533 1543" version="1.1">
	<path d="M 754.500 94.679 C 739.886 95.931, 718.148 101.207, 703 107.179 C 693.943 110.749, 678.131 119.066, 660.266 129.655 C 652.988 133.970, 643.394 139.525, 638.947 142 C 634.500 144.475, 626.505 149.032, 621.181 152.126 C 610.294 158.454, 589.733 170.287, 574 179.280 C 568.225 182.581, 560.800 186.963, 557.500 189.018 C 554.200 191.074, 542.050 198.044, 530.500 204.509 C 518.950 210.973, 504.325 219.294, 498 222.999 C 491.675 226.704, 483.125 231.666, 479 234.025 C 474.875 236.384, 467.450 240.671, 462.500 243.552 C 457.550 246.432, 448.775 251.392, 443 254.573 C 437.225 257.755, 425.164 264.793, 416.198 270.214 C 407.232 275.635, 397.557 281.108, 394.698 282.375 C 391.839 283.643, 386.350 286.686, 382.500 289.138 C 378.650 291.591, 367.625 298.028, 358 303.443 C 328.193 320.214, 313.930 328.425, 258 361.005 C 248.375 366.612, 236.900 373.244, 232.500 375.743 C 210.751 388.094, 196.620 400.020, 182.406 418.021 C 169.227 434.712, 158.212 457.048, 152.900 477.855 C 146.967 501.091, 147.228 487.356, 147.106 783 C 147.037 950.994, 147.363 1058.357, 147.961 1064.616 C 149.222 1077.812, 151.360 1087.996, 155.689 1101.420 C 160.004 1114.802, 169.315 1134.593, 175.853 1144.282 C 181.606 1152.807, 195.321 1168.428, 203.613 1175.901 C 210.496 1182.103, 232.027 1196.739, 243.500 1203.015 C 247.900 1205.422, 254.504 1209.328, 258.175 1211.696 C 261.846 1214.063, 265.278 1216, 265.801 1216 C 266.324 1216, 266.994 1213.638, 267.289 1210.750 C 269.069 1193.335, 279.928 1157.534, 294.967 1119.500 C 301.665 1102.561, 320.295 1065.137, 330.277 1048.567 C 333.569 1043.104, 337.262 1036.475, 338.484 1033.837 L 340.707 1029.040 340.283 802.270 C 339.987 644.254, 340.182 573.681, 340.925 569.500 C 343.120 557.158, 343.811 554.887, 347.542 547.780 C 352.563 538.218, 360.759 527.217, 366.553 522.264 C 371.697 517.867, 382.900 511.225, 418 491.762 C 447.550 475.377, 452.069 472.771, 470.500 461.482 C 483.477 453.534, 496.537 445.985, 525 429.980 C 528.575 427.970, 535.325 423.925, 540 420.992 C 544.675 418.059, 551.875 413.792, 556 411.510 C 560.125 409.227, 568 404.634, 573.500 401.303 C 579 397.972, 585.101 394.347, 587.057 393.248 C 599.527 386.245, 609.261 380.640, 622 373.126 C 629.975 368.422, 639.650 362.966, 643.500 361.003 C 651.436 356.955, 672.987 344.425, 680.500 339.490 C 683.250 337.684, 687.300 335.304, 689.500 334.202 C 691.700 333.100, 702.725 326.968, 714 320.575 C 741.392 305.043, 751.057 301.706, 769 301.585 C 782.276 301.495, 785.668 302.169, 801.109 307.969 C 808.168 310.620, 813.674 313.573, 837.500 327.481 C 842.450 330.371, 853.475 336.699, 862 341.545 C 870.525 346.391, 878.625 351.121, 880 352.057 C 881.375 352.992, 886.100 355.763, 890.500 358.214 C 897.510 362.119, 934.592 383.417, 971.660 404.829 C 978.348 408.692, 985.548 412.964, 987.660 414.323 C 991.163 416.578, 1003.588 423.752, 1030.500 439.058 C 1036 442.186, 1048.150 449.237, 1057.500 454.727 C 1117.457 489.932, 1113.750 488.049, 1119.759 486.352 C 1121.817 485.771, 1132.725 482.512, 1144 479.110 C 1155.275 475.708, 1168.325 471.792, 1173 470.408 C 1177.675 469.024, 1190.050 465.254, 1200.500 462.029 C 1210.950 458.805, 1230.750 452.967, 1244.500 449.056 C 1258.250 445.145, 1273.325 440.802, 1278 439.405 C 1300.118 432.795, 1315.142 428.501, 1334 423.401 C 1345.275 420.351, 1355.570 417.532, 1356.877 417.136 C 1359.092 416.464, 1358.551 415.752, 1348.911 406.659 C 1343.222 401.293, 1336.753 395.561, 1334.534 393.921 C 1326.393 387.906, 1310.299 377.456, 1303 373.446 C 1290.166 366.396, 1272.510 356.345, 1260.765 349.402 C 1254.569 345.740, 1245.450 340.372, 1240.500 337.474 C 1235.550 334.576, 1222.725 327.054, 1212 320.758 C 1192.174 309.120, 1179.056 301.571, 1162 291.984 C 1156.775 289.047, 1144.313 281.886, 1134.307 276.072 C 1124.301 270.257, 1106.076 259.739, 1093.807 252.697 C 1081.538 245.655, 1059.800 233.110, 1045.500 224.819 C 1031.200 216.527, 1012.975 206.063, 1005 201.564 C 997.025 197.065, 988.700 192.241, 986.500 190.843 C 984.300 189.445, 969.225 180.755, 953 171.532 C 936.775 162.308, 915.175 149.919, 905 144.001 C 875.687 126.949, 857.234 116.599, 847.196 111.579 C 820.694 98.325, 785.927 91.986, 754.500 94.679 M 1362.131 442.250 C 1358.775 447.337, 1350.957 458.925, 1344.758 468 C 1326.515 494.706, 1289.764 549.497, 1271.311 577.500 C 1261.888 591.800, 1247.500 613.434, 1239.339 625.576 C 1231.177 637.718, 1218.937 656.064, 1212.137 666.344 L 1199.774 685.036 1199.852 833.698 C 1199.894 915.463, 1199.527 988.710, 1199.035 996.470 C 1198.007 1012.695, 1196.104 1019.004, 1188.255 1032.216 C 1179.466 1047.010, 1173.504 1051.413, 1123.500 1080.036 C 1113.600 1085.703, 1095.600 1096.051, 1083.500 1103.030 C 1071.400 1110.009, 1057 1118.313, 1051.500 1121.483 C 1046 1124.653, 1035.650 1130.731, 1028.500 1134.990 C 1021.350 1139.248, 1012.350 1144.451, 1008.500 1146.550 C 1000.793 1150.752, 978.349 1163.774, 962 1173.530 C 956.225 1176.975, 946.100 1182.906, 939.500 1186.709 C 932.900 1190.511, 915.125 1200.768, 900 1209.501 C 816.510 1257.710, 804.958 1264.029, 794.101 1267.430 C 781.497 1271.379, 772.627 1272.336, 761.178 1270.982 C 747.786 1269.399, 743.025 1267.909, 731.500 1261.689 C 726 1258.721, 717.900 1254.367, 713.500 1252.015 C 709.100 1249.662, 701.900 1245.600, 697.500 1242.989 C 693.100 1240.377, 674.650 1229.808, 656.500 1219.500 C 638.350 1209.193, 621.925 1199.753, 620 1198.523 C 618.075 1197.292, 613.989 1194.910, 610.920 1193.230 L 605.339 1190.174 601.081 1200.337 C 598.739 1205.927, 593.915 1217.475, 590.361 1226 C 576.005 1260.434, 569.903 1282.214, 561.505 1329 C 559.438 1340.511, 557.089 1360.326, 556.335 1372.600 L 555.714 1382.699 564.418 1387.600 C 569.205 1390.295, 576.806 1394.698, 581.311 1397.384 C 585.815 1400.070, 592.875 1404.066, 597 1406.263 C 601.125 1408.461, 605.400 1411.025, 606.500 1411.962 C 608.714 1413.847, 638.866 1431.314, 654.500 1439.767 C 660 1442.741, 665.063 1445.640, 665.750 1446.209 C 666.438 1446.779, 667 1446.965, 667 1446.622 C 667 1446.280, 667.812 1446.812, 668.805 1447.805 C 671.776 1450.776, 683.930 1457.162, 685.163 1456.399 C 685.814 1455.997, 686.038 1456.130, 685.682 1456.706 C 685.337 1457.264, 686.908 1458.557, 689.174 1459.578 C 691.439 1460.600, 693.790 1461.900, 694.397 1462.468 C 695.003 1463.036, 698.200 1464.252, 701.500 1465.172 C 704.800 1466.091, 712 1468.230, 717.500 1469.926 C 735.703 1475.536, 747.169 1477.115, 769.256 1477.051 C 784.164 1477.008, 792.263 1476.481, 802.256 1474.906 C 821.424 1471.884, 847.967 1462.513, 859.170 1454.813 C 860.639 1453.803, 864.643 1451.587, 868.067 1449.888 C 871.492 1448.189, 877.265 1444.895, 880.897 1442.568 C 884.529 1440.241, 892 1435.939, 897.500 1433.009 C 903 1430.079, 908.212 1427.077, 909.082 1426.338 C 910.640 1425.015, 920.282 1419.562, 935 1411.680 C 939.125 1409.471, 943.912 1406.599, 945.637 1405.299 C 947.363 1403.999, 952.313 1400.991, 956.637 1398.615 C 963.765 1394.699, 974.239 1388.640, 1003.500 1371.509 C 1020.395 1361.618, 1025.185 1358.868, 1034 1354.001 C 1038.675 1351.419, 1045.650 1347.271, 1049.500 1344.783 C 1053.350 1342.294, 1058.975 1339.024, 1062 1337.514 C 1065.025 1336.005, 1071.100 1332.648, 1075.500 1330.055 C 1083.109 1325.571, 1097.186 1317.451, 1112.500 1308.713 C 1116.350 1306.517, 1123.550 1302.371, 1128.500 1299.500 C 1133.450 1296.629, 1142.450 1291.450, 1148.500 1287.991 C 1154.550 1284.532, 1166.925 1277.329, 1176 1271.985 C 1215.867 1248.506, 1223.716 1244, 1224.749 1244 C 1225.353 1244, 1227.119 1242.974, 1228.673 1241.720 C 1230.228 1240.466, 1233.924 1238.155, 1236.887 1236.583 C 1239.849 1235.012, 1244.657 1232.325, 1247.571 1230.613 C 1250.484 1228.901, 1259.085 1223.944, 1266.684 1219.598 C 1283.054 1210.236, 1301.220 1199.702, 1313 1192.740 C 1317.675 1189.977, 1325.550 1184.448, 1330.500 1180.452 C 1361.742 1155.236, 1380.554 1124.180, 1389.532 1083 L 1392.258 1070.500 1393.057 968 C 1394.188 822.889, 1394.083 527.325, 1392.895 511.500 C 1391.773 496.567, 1387.592 476.332, 1383.079 464 C 1379.496 454.207, 1369.805 433.098, 1368.866 433.039 C 1368.518 433.018, 1365.487 437.163, 1362.131 442.250 M 979.791 651.988 C 972.165 654.287, 966 663.335, 966 672.230 C 966 681.441, 973.793 691.817, 984.665 697.080 C 988.403 698.889, 990.376 699.175, 996.453 698.785 C 1005.253 698.220, 1009.618 695.869, 1014.181 689.237 C 1018.069 683.585, 1018.432 676.253, 1015.029 672.059 C 1013.888 670.651, 1011.355 667.106, 1009.401 664.179 C 1007.096 660.727, 1003.712 657.478, 999.769 654.929 C 994.458 651.496, 992.983 651.011, 988.095 651.086 C 985.018 651.133, 981.281 651.539, 979.791 651.988 M 413.854 738.750 C 413.659 781.513, 413.649 819.488, 413.831 823.141 C 414.152 829.591, 414.246 829.799, 417.101 830.370 C 419.392 830.828, 420.178 831.638, 420.657 834.036 C 421.060 836.051, 422.514 837.957, 424.868 839.557 C 428.194 841.816, 429.377 842, 440.610 842 C 449.107 842, 453.066 841.625, 453.790 840.750 C 456.356 837.651, 457.105 826.037, 456.889 792.690 C 456.768 773.885, 457.025 755.420, 457.461 751.655 L 458.253 744.811 461.266 750.155 C 462.923 753.095, 466.162 758.875, 468.464 763 C 470.766 767.125, 475.881 776.125, 479.832 783 C 483.782 789.875, 490.948 802.415, 495.757 810.866 C 500.566 819.318, 506.413 828.445, 508.750 831.150 C 511.087 833.854, 513 836.706, 513 837.486 C 513 838.275, 514.667 839.369, 516.750 839.947 C 521.583 841.290, 539.399 841.295, 544.222 839.955 C 547.384 839.077, 548.101 838.340, 548.986 835.053 C 550.141 830.763, 550.645 674.700, 549.513 671.842 C 549.152 670.929, 547.533 669.635, 545.915 668.965 C 544.298 668.295, 542.731 666.775, 542.433 665.588 C 541.800 663.067, 543.128 663.270, 521.585 662.396 L 504.670 661.710 505.325 707.802 C 505.685 733.153, 505.613 754.121, 505.165 754.398 C 504.717 754.675, 503.336 752.813, 502.096 750.260 C 500.856 747.707, 497.245 741.092, 494.072 735.559 C 490.900 730.027, 485.275 719.875, 481.573 713 C 477.871 706.125, 472.425 696.465, 469.471 691.534 C 466.517 686.602, 464.265 682.402, 464.468 682.199 C 464.670 681.997, 464.223 681.082, 463.474 680.165 C 462.724 679.249, 460.039 675.709, 457.507 672.298 C 449 660.839, 449.384 661, 430.528 661 L 414.209 661 413.854 738.750 M 818.791 678.750 C 818.676 683.013, 818.564 691, 818.541 696.500 L 818.500 706.500 811.255 706.171 C 804.214 705.852, 803.982 705.917, 803.005 708.487 C 802.452 709.941, 802 716.047, 802 722.057 C 802 731.900, 802.198 733.107, 804 734.232 C 805.100 734.919, 806 736.203, 806 737.086 C 806 739.319, 808.694 741.426, 814.152 743.462 L 818.804 745.197 819.235 774.848 C 819.771 811.757, 820.119 813.221, 831.329 825.811 C 840.059 835.616, 841.215 836.492, 850.282 840.182 C 856.586 842.747, 858.316 843, 869.570 843 C 884.007 843, 888.489 841.604, 889.549 836.777 C 889.899 835.186, 889.860 829.127, 889.464 823.314 C 888.889 814.876, 888.358 812.358, 886.832 810.832 C 885.780 809.780, 884.499 807.813, 883.985 806.460 C 883.100 804.133, 882.623 804, 875.136 804 C 868.836 804, 866.740 803.610, 864.861 802.090 C 862.501 800.180, 862.500 800.168, 862.203 773.499 C 861.988 754.215, 862.230 746.428, 863.075 745.409 C 863.750 744.596, 866.066 744, 868.550 744 C 875.434 744, 888.391 741.966, 889.702 740.680 C 890.362 740.031, 891.209 735.407, 891.583 730.405 C 892.130 723.098, 891.922 720.282, 890.528 716.084 C 889.573 713.209, 888.164 710.616, 887.396 710.322 C 886.628 710.027, 886 708.934, 886 707.893 C 886 706.147, 885.119 706, 874.618 706 L 863.236 706 862.837 693.171 L 862.437 680.342 858.469 675.704 L 854.500 671.066 836.750 671.033 L 819 671 818.791 678.750 M 615.500 703.675 C 580.468 708.039, 559.868 729.750, 558.264 764 C 557.842 773.002, 558.147 776.053, 560.399 785.387 C 563.793 799.444, 565.380 802.863, 572.898 812.306 C 580.790 822.219, 585.740 827.011, 592.289 831.078 C 595.155 832.858, 598.625 835.023, 600 835.888 C 618.048 847.245, 653.135 844.516, 670.454 830.408 C 675.699 826.135, 675.803 825.948, 675.272 821.770 C 674.973 819.422, 674.286 816.642, 673.745 815.593 C 671.845 811.909, 661.195 799.465, 657.216 796.281 C 653.569 793.362, 653.068 793.213, 651.847 794.688 C 649.468 797.560, 637.114 802.800, 629.821 804.030 C 619.622 805.751, 606.606 803.472, 605.627 799.795 C 605.438 799.083, 604.732 796.791, 604.059 794.702 C 601.907 788.020, 602.037 787.986, 628.872 788.106 C 641.868 788.164, 657.102 788.502, 662.728 788.856 C 674.938 789.625, 678.416 789.038, 681.816 785.638 C 684.269 783.185, 684.371 782.629, 684.184 772.647 C 683.933 759.179, 682.936 754.261, 678.481 744.508 C 671.095 728.339, 658.632 714.720, 646.657 709.730 C 635.821 705.216, 623.051 702.734, 615.500 703.675 M 1056.925 705.310 C 1046.413 709.106, 1040.274 712.952, 1033.972 719.690 C 1029.679 724.278, 1027.664 727.393, 1026.541 731.174 C 1024.376 738.465, 1024.548 749.789, 1026.919 756.029 C 1029.234 762.122, 1038.802 774.091, 1045 778.649 C 1051.495 783.425, 1062.640 787.812, 1075.385 790.611 C 1092.684 794.410, 1093.790 795.343, 1087.521 800.847 C 1079.595 807.806, 1064.047 806.823, 1048.399 798.374 C 1043.943 795.968, 1040.043 794, 1039.732 794 C 1038.500 794, 1024.158 815.223, 1024.042 817.218 C 1024.019 817.614, 1026.588 819.828, 1029.750 822.138 C 1032.912 824.449, 1038.093 828.562, 1041.261 831.279 C 1045.712 835.094, 1049.239 836.997, 1056.761 839.643 C 1066.010 842.895, 1067.197 843.070, 1080.346 843.111 C 1091.776 843.147, 1095.091 842.811, 1099.346 841.187 C 1102.181 840.104, 1106.554 838.489, 1109.064 837.598 C 1114.420 835.695, 1124.499 827.868, 1127.690 823.132 C 1133.265 814.859, 1135.644 801.219, 1133.074 792.258 C 1131.738 787.600, 1121.228 772.362, 1116.519 768.256 C 1110.673 763.159, 1102.429 759.625, 1085.611 755.008 C 1069.454 750.573, 1067 749.602, 1067 747.639 C 1067 745.342, 1071.386 742.148, 1076 741.085 C 1087.411 738.457, 1100.263 740.466, 1107.080 745.944 C 1109.171 747.625, 1111.831 749, 1112.989 749 C 1116.112 749, 1124.144 740.371, 1127.349 733.571 C 1132.516 722.610, 1130.842 718.667, 1118.484 712.689 C 1104.236 705.795, 1095.496 703.747, 1078.500 703.316 C 1064.683 702.965, 1062.981 703.123, 1056.925 705.310 M 968.750 706.575 C 968.337 706.992, 968 737.686, 968 774.784 L 968 842.235 964.118 846.118 C 959.802 850.433, 956.524 850.991, 949.726 848.566 C 946.218 847.314, 945.876 847.363, 944.858 849.266 C 943.261 852.250, 937 871.123, 937.002 872.946 C 937.003 873.801, 939.009 875.767, 941.461 877.316 C 943.913 878.865, 946.874 881.677, 948.041 883.566 C 949.208 885.455, 950.914 887.003, 951.832 887.006 C 952.749 887.010, 954.777 887.678, 956.337 888.492 C 957.898 889.306, 962.093 890.480, 965.661 891.101 C 973.028 892.384, 981.164 891.247, 989.191 887.812 C 995.173 885.252, 1004.312 875.745, 1007.513 868.752 C 1011.307 860.466, 1012.124 851.160, 1011.927 818.500 C 1011.827 802, 1011.817 772.975, 1011.905 754 C 1011.992 735.025, 1011.764 718.018, 1011.398 716.206 C 1010.925 713.864, 1009.542 712.095, 1006.616 710.085 C 1002.646 707.358, 1001.915 707.232, 986 706.538 C 976.925 706.141, 969.163 706.158, 968.750 706.575 M 680.750 707.689 C 679.788 707.941, 679 708.493, 679 708.915 C 679 709.338, 681.446 713.243, 684.435 717.592 C 687.424 721.941, 691.137 727.409, 692.685 729.743 C 694.233 732.076, 696.930 736.126, 698.678 738.743 C 709.437 754.846, 716 765.559, 716 767.020 C 716 767.943, 713.962 771.579, 711.471 775.099 C 708.980 778.620, 704.112 785.775, 700.653 791 C 697.194 796.225, 690.232 806.555, 685.182 813.955 C 680.132 821.356, 676 827.731, 676 828.123 C 676 828.515, 677.688 829.660, 679.750 830.668 C 682.792 832.154, 683.507 833.053, 683.539 835.430 C 683.560 837.100, 684.205 838.553, 685.039 838.810 C 685.842 839.058, 687.264 839.925, 688.197 840.737 C 689.575 841.937, 692.297 842.117, 702.697 841.697 C 720.458 840.981, 721.498 840.558, 727.183 831.753 C 729.758 827.764, 733.430 821.045, 735.343 816.822 C 737.944 811.080, 739.592 808.745, 741.880 807.562 C 744.812 806.046, 745 806.074, 746.364 808.240 C 769.055 844.261, 766.148 841.935, 788.527 841.974 C 804.634 842.002, 808 841.121, 808 836.878 C 808 833.993, 806.706 831.871, 797.043 818.911 C 792.290 812.537, 787.112 804.774, 785.536 801.659 C 783.960 798.544, 782.443 796.223, 782.165 796.501 C 781.601 797.066, 772.967 784.551, 769.946 778.790 C 768.876 776.749, 768 773.964, 768 772.600 C 768 770.398, 774.749 760.446, 780.274 754.500 C 781.296 753.400, 783.088 750.925, 784.255 749 C 785.422 747.075, 788.254 743.025, 790.547 740 C 796.859 731.674, 799.064 726.629, 799.699 719.055 L 800.266 712.288 797.133 711.196 C 795.410 710.596, 794 709.406, 794 708.552 C 794 707.212, 791.776 707.002, 777.750 707.014 C 768.813 707.021, 760.572 707.276, 759.439 707.581 C 758.137 707.930, 755.210 711.889, 751.499 718.317 C 744.200 730.963, 740.936 736, 740.043 736 C 739.662 736, 736.684 731.681, 733.425 726.401 C 725.034 712.807, 721.969 709.482, 716.587 708.126 C 712.343 707.057, 684.469 706.718, 680.750 707.689 M 609.828 748.111 L 602.891 755.500 621.623 755.773 C 632.410 755.930, 640.754 755.646, 641.297 755.103 C 642.571 753.829, 638.259 746.239, 634.816 743.693 C 632.888 742.267, 629.968 741.569, 624.448 741.215 L 616.764 740.722 609.828 748.111 M 906.542 793.275 C 904.364 794.508, 901.228 797.445, 899.572 799.802 C 897.086 803.339, 896.492 805.295, 896.169 811.015 C 895.829 817.023, 896.111 818.513, 898.285 822.223 C 899.664 824.577, 901.739 827.359, 902.896 828.406 C 904.053 829.453, 905 830.912, 905 831.649 C 905 833.686, 912.721 838.840, 918.221 840.473 C 926.652 842.977, 934.331 840.592, 941.186 833.341 C 944.822 829.496, 946.101 825.705, 946.135 818.672 C 946.160 813.429, 945.726 812.115, 942.331 807.152 C 936.667 798.870, 931.872 794.485, 926.464 792.643 C 919.496 790.268, 911.396 790.525, 906.542 793.275 M 416.083 832.283 C 416.313 832.439, 417.298 833.177, 418.273 833.924 C 419.816 835.107, 419.964 835.070, 419.416 833.641 C 419.069 832.739, 418.084 832, 417.226 832 C 416.369 832, 415.854 832.127, 416.083 832.283 M 533.002 911.722 C 497.198 942.629, 459.817 982.386, 434.247 1016.752 C 424.969 1029.222, 405.560 1058.280, 400.017 1068 C 397.665 1072.125, 392.495 1081.125, 388.529 1088 C 372.152 1116.388, 353.998 1158.442, 342.337 1195 C 339.878 1202.707, 328 1248.248, 328 1249.966 C 328 1251.161, 336.957 1257.229, 347.500 1263.177 C 361.226 1270.921, 387.268 1286.151, 392.500 1289.494 C 395.250 1291.251, 403.800 1296.208, 411.500 1300.509 C 419.200 1304.811, 427.750 1309.758, 430.500 1311.502 C 438.817 1316.777, 447.074 1321.570, 455.500 1326.011 C 459.900 1328.331, 466.200 1331.899, 469.500 1333.941 C 481.451 1341.337, 488.136 1345.196, 488.398 1344.851 C 488.546 1344.658, 489.399 1338.650, 490.294 1331.500 C 494.825 1295.295, 506.485 1246.788, 517.337 1219 C 537.029 1168.575, 551.922 1140.589, 579.070 1103 C 594.121 1082.160, 603.580 1071.253, 626.225 1048.623 C 637.715 1037.140, 646.930 1027.240, 646.702 1026.623 C 644.532 1020.748, 636.707 994.845, 635.463 989.421 C 631.601 972.585, 621.452 941.719, 619.070 939.563 C 618.116 938.700, 613.773 936.027, 609.418 933.622 C 588.236 921.925, 561.415 906.723, 559.095 905.099 C 557.668 904.100, 554.700 902.171, 552.500 900.813 L 548.500 898.343 533.002 911.722" stroke="none" fill="black" fill-rule="evenodd"/>
</svg>